<svg width="56" height="56" viewBox="0 0 56 56" fill="none" xmlns="http://www.w3.org/2000/svg">
<path d="M12.2644 43.7221C9.13027 47.9574 3.10789 54.7632 -0.330425 53.8729M31.8992 33.2575C30.5018 32.9966 28.1958 31.465 30.1512 27.4249M13.2244 43.2505C13.2564 43.2054 13.2879 43.1608 13.319 43.1167L12.826 42.7693C11.6502 40.1635 10.9301 37.261 11.1894 34.2794C11.4569 31.2039 12.7692 28.0059 15.7709 24.926C18.5504 22.0739 21.5085 21.0873 24.5088 20.523C25.3931 20.3567 26.2503 20.2315 27.113 20.1056C27.7505 20.0125 28.3909 19.919 29.0476 19.8081C30.5579 19.5531 32.0676 19.217 33.5307 18.6046C34.5062 18.1964 35.8703 17.1441 37.3248 15.863C38.7981 14.5652 40.4214 12.9801 41.9278 11.4472C43.4352 9.91324 44.8305 8.42667 45.8486 7.32393C46.3546 6.77586 46.7677 6.32231 47.0555 6.0045C47.0729 6.03648 47.0909 6.06982 47.1094 6.10451C47.3462 6.54868 47.6635 7.21352 47.9765 8.08306C48.6022 9.82167 49.2109 12.3786 49.1248 15.6289C48.9531 22.1162 46.0103 31.448 34.726 42.6058L34.7259 42.6058L34.7195 42.6124C28.8785 48.6058 19.3612 48.8488 13.2244 43.2505ZM36.4807 28.2903C36.7807 28.9661 37.5553 29.6033 38.8082 29.6398C40.0401 29.6758 41.7098 29.1358 43.9072 27.5724L43.3274 26.7576C41.2148 28.2608 39.7602 28.6672 38.8374 28.6403C37.9356 28.614 37.5254 28.1791 37.3947 27.8846L36.4807 28.2903ZM31.9909 32.7659C31.3939 32.6545 30.6208 32.2711 30.2059 31.5173C29.8033 30.786 29.6668 29.5734 30.6012 27.6427L29.7011 27.2071C28.6801 29.3166 28.7189 30.8898 29.3298 31.9995C29.9284 33.0868 31.007 33.5996 31.8074 33.749L31.9909 32.7659ZM26.4935 38.5526C26.879 39.3724 27.6584 40.4962 28.7716 41.1937C29.9191 41.9126 31.4094 42.1642 33.0808 41.2073L32.584 40.3394C31.2663 41.0939 30.1717 40.8908 29.3025 40.3463C28.399 39.7802 27.7297 38.8316 27.3985 38.1271L26.4935 38.5526Z" stroke="#15E453"/>
<path d="M12.6528 43.6373C10.6704 46.6601 5.40334 52.2624 0.194111 50.4889M41.6117 17.2638C36.9974 33.9577 25.1645 40.9664 14.6352 40.6145" stroke="#15E453" stroke-linecap="round" stroke-linejoin="round"/>
</svg>
