<svg width="100" height="100" viewBox="0 0 100 100" fill="none" xmlns="http://www.w3.org/2000/svg">
<rect width="100" height="100" fill="#C0C0C0"/>
<path d="M45.6165 76.3064C46.5667 83.1596 47.1833 95.2901 43.0879 97.6303M54.5442 39.0145C55.8432 39.5341 58.753 38.8587 60 32M54.5442 48.5285C52.9855 49.5677 49.4002 50.2432 47.5297 44.6315M54.5442 57.8812C56.6226 58.6606 61.0912 59.1283 62.3382 54.7636M45.9749 75.3001C45.9565 75.1809 45.9382 75.0638 45.9198 74.9489L44.9853 75.0984C41.5512 73.7136 38.2755 71.6493 35.8152 68.6426C33.2142 65.4638 31.5 61.2024 31.5 55.5C31.5 50.2068 33.4029 46.5229 35.7259 43.216C36.4077 42.2455 37.1066 41.3322 37.8078 40.4159C38.3239 39.7416 38.8412 39.0656 39.3538 38.3641C40.5419 36.738 41.6495 35.0436 42.4602 33.1362C42.9936 31.881 43.3125 29.6583 43.507 27.1088C43.7035 24.5343 43.7775 21.5494 43.7893 18.7188C43.8011 15.8867 43.7506 13.202 43.6972 11.2259C43.6705 10.2376 43.6431 9.42612 43.6223 8.86148C43.6196 8.78673 43.6169 8.7163 43.6144 8.65036C43.7214 8.68138 43.8411 8.71759 43.9727 8.75953C44.6113 8.96304 45.5294 9.30145 46.6322 9.83791C48.8372 10.9106 51.7803 12.7752 54.7039 15.9385C60.542 22.2552 66.3576 33.812 65.9698 54.7544H65.9697V54.7636C65.9697 65.9261 57.0671 75.0092 45.9749 75.3001ZM54.3585 39.4788C55.2017 39.8161 56.455 39.7224 57.63 38.6422C58.7895 37.5763 59.8591 35.5699 60.4919 32.0894L59.5081 31.9106C58.8939 35.2887 57.8851 37.0494 56.9532 37.906C56.0369 38.7484 55.1858 38.7326 54.7299 38.5503L54.3585 39.4788ZM54.2669 48.1125C53.5736 48.5747 52.4421 48.943 51.2993 48.5957C50.181 48.2558 48.9079 47.185 48.004 44.4734L47.0554 44.7896C48.022 47.6897 49.4768 49.087 51.0085 49.5525C52.5156 50.0105 53.9561 49.5215 54.8216 48.9445L54.2669 48.1125ZM54.3687 58.3494C55.4675 58.7615 57.2049 59.0975 58.8586 58.7402C60.5519 58.3742 62.1394 57.2793 62.8189 54.901L61.8574 54.6263C61.2899 56.6126 60.0196 57.4662 58.6474 57.7627C57.2355 58.0678 55.6993 57.7804 54.7198 57.4131L54.3687 58.3494Z" stroke="#15E453"/>
<path d="M45.9268 76.0279C46.8362 80.7042 47.0181 90.8364 40.4703 93.9539M49 24.5C60 44.5 55.2788 61.9988 45.0174 71.3515" stroke="#15E453" stroke-linecap="round" stroke-linejoin="round"/>
</svg>
